<mxfile host="app.diagrams.net" modified="2023-11-20T06:21:47.621Z" agent="Mozilla/5.0 (Windows NT 10.0; Win64; x64) AppleWebKit/537.36 (KHTML, like Gecko) Chrome/119.0.0.0 Safari/537.36" etag="3JOz-RtPQZ06NfzwgEst" version="22.1.3" type="github">
  <diagram id="R2lEEEUBdFMjLlhIrx00" name="Page-1">
    <mxGraphModel dx="875" dy="478" grid="1" gridSize="10" guides="1" tooltips="1" connect="1" arrows="1" fold="1" page="1" pageScale="1" pageWidth="850" pageHeight="1100" math="0" shadow="0" extFonts="Permanent Marker^https://fonts.googleapis.com/css?family=Permanent+Marker">
      <root>
        <mxCell id="0" />
        <mxCell id="1" parent="0" />
        <mxCell id="9egOjNyJsHqfTRNM6eIV-20" style="rounded=0;orthogonalLoop=1;jettySize=auto;html=1;exitX=0.5;exitY=1;exitDx=0;exitDy=0;fontFamily=Helvetica;fontSize=12;fontColor=default;endArrow=none;endFill=0;" edge="1" parent="1" source="9egOjNyJsHqfTRNM6eIV-10" target="9egOjNyJsHqfTRNM6eIV-18">
          <mxGeometry relative="1" as="geometry" />
        </mxCell>
        <mxCell id="9egOjNyJsHqfTRNM6eIV-21" style="rounded=0;orthogonalLoop=1;jettySize=auto;html=1;exitX=1;exitY=0.5;exitDx=0;exitDy=0;entryX=0;entryY=0.5;entryDx=0;entryDy=0;fontFamily=Helvetica;fontSize=12;fontColor=default;endArrow=none;endFill=0;" edge="1" parent="1" source="9egOjNyJsHqfTRNM6eIV-10" target="9egOjNyJsHqfTRNM6eIV-11">
          <mxGeometry relative="1" as="geometry" />
        </mxCell>
        <mxCell id="9egOjNyJsHqfTRNM6eIV-10" value="부서" style="whiteSpace=wrap;html=1;align=center;strokeColor=default;strokeWidth=1;verticalAlign=middle;fontFamily=Helvetica;fontSize=12;fontColor=default;fillColor=default;" vertex="1" parent="1">
          <mxGeometry x="70" y="230" width="100" height="40" as="geometry" />
        </mxCell>
        <mxCell id="9egOjNyJsHqfTRNM6eIV-22" style="edgeStyle=orthogonalEdgeStyle;rounded=0;orthogonalLoop=1;jettySize=auto;html=1;exitX=1;exitY=0.5;exitDx=0;exitDy=0;entryX=0;entryY=0.5;entryDx=0;entryDy=0;fontFamily=Helvetica;fontSize=12;fontColor=default;endArrow=none;endFill=0;" edge="1" parent="1" source="9egOjNyJsHqfTRNM6eIV-11" target="9egOjNyJsHqfTRNM6eIV-12">
          <mxGeometry relative="1" as="geometry">
            <Array as="points">
              <mxPoint x="340" y="250" />
              <mxPoint x="340" y="250" />
            </Array>
          </mxGeometry>
        </mxCell>
        <mxCell id="9egOjNyJsHqfTRNM6eIV-11" value="소속" style="shape=rhombus;perimeter=rhombusPerimeter;whiteSpace=wrap;html=1;align=center;strokeColor=default;strokeWidth=1;verticalAlign=middle;fontFamily=Helvetica;fontSize=12;fontColor=default;fillColor=default;" vertex="1" parent="1">
          <mxGeometry x="200" y="220" width="120" height="60" as="geometry" />
        </mxCell>
        <mxCell id="9egOjNyJsHqfTRNM6eIV-23" style="rounded=0;orthogonalLoop=1;jettySize=auto;html=1;exitX=1;exitY=0.5;exitDx=0;exitDy=0;entryX=0;entryY=0.5;entryDx=0;entryDy=0;fontFamily=Helvetica;fontSize=12;fontColor=default;endArrow=none;endFill=0;" edge="1" parent="1" source="9egOjNyJsHqfTRNM6eIV-12" target="9egOjNyJsHqfTRNM6eIV-13">
          <mxGeometry relative="1" as="geometry" />
        </mxCell>
        <mxCell id="9egOjNyJsHqfTRNM6eIV-27" style="rounded=0;orthogonalLoop=1;jettySize=auto;html=1;exitX=0.5;exitY=1;exitDx=0;exitDy=0;entryX=0.5;entryY=0;entryDx=0;entryDy=0;fontFamily=Helvetica;fontSize=12;fontColor=default;endArrow=none;endFill=0;" edge="1" parent="1" source="9egOjNyJsHqfTRNM6eIV-12" target="9egOjNyJsHqfTRNM6eIV-15">
          <mxGeometry relative="1" as="geometry" />
        </mxCell>
        <mxCell id="9egOjNyJsHqfTRNM6eIV-12" value="직원" style="whiteSpace=wrap;html=1;align=center;strokeColor=default;strokeWidth=1;verticalAlign=middle;fontFamily=Helvetica;fontSize=12;fontColor=default;fillColor=default;" vertex="1" parent="1">
          <mxGeometry x="350" y="230" width="100" height="40" as="geometry" />
        </mxCell>
        <mxCell id="9egOjNyJsHqfTRNM6eIV-24" style="rounded=0;orthogonalLoop=1;jettySize=auto;html=1;exitX=1;exitY=0.5;exitDx=0;exitDy=0;entryX=0;entryY=0.5;entryDx=0;entryDy=0;fontFamily=Helvetica;fontSize=12;fontColor=default;endArrow=none;endFill=0;" edge="1" parent="1" source="9egOjNyJsHqfTRNM6eIV-13" target="9egOjNyJsHqfTRNM6eIV-14">
          <mxGeometry relative="1" as="geometry">
            <mxPoint x="610" y="250" as="sourcePoint" />
          </mxGeometry>
        </mxCell>
        <mxCell id="9egOjNyJsHqfTRNM6eIV-13" value="부양" style="shape=rhombus;double=1;perimeter=rhombusPerimeter;whiteSpace=wrap;html=1;align=center;strokeColor=default;strokeWidth=1;verticalAlign=middle;fontFamily=Helvetica;fontSize=12;fontColor=default;fillColor=default;" vertex="1" parent="1">
          <mxGeometry x="480" y="220" width="120" height="60" as="geometry" />
        </mxCell>
        <mxCell id="9egOjNyJsHqfTRNM6eIV-14" value="부양가족" style="shape=ext;margin=3;double=1;whiteSpace=wrap;html=1;align=center;strokeColor=default;strokeWidth=1;verticalAlign=middle;fontFamily=Helvetica;fontSize=12;fontColor=default;fillColor=default;" vertex="1" parent="1">
          <mxGeometry x="640" y="230" width="100" height="40" as="geometry" />
        </mxCell>
        <mxCell id="9egOjNyJsHqfTRNM6eIV-28" style="rounded=0;orthogonalLoop=1;jettySize=auto;html=1;exitX=0.5;exitY=1;exitDx=0;exitDy=0;fontFamily=Helvetica;fontSize=12;fontColor=default;endArrow=none;endFill=0;" edge="1" parent="1" source="9egOjNyJsHqfTRNM6eIV-15" target="9egOjNyJsHqfTRNM6eIV-16">
          <mxGeometry relative="1" as="geometry" />
        </mxCell>
        <mxCell id="9egOjNyJsHqfTRNM6eIV-15" value="근무" style="shape=rhombus;double=1;perimeter=rhombusPerimeter;whiteSpace=wrap;html=1;align=center;strokeColor=default;strokeWidth=1;verticalAlign=middle;fontFamily=Helvetica;fontSize=12;fontColor=default;fillColor=default;" vertex="1" parent="1">
          <mxGeometry x="340" y="300" width="120" height="60" as="geometry" />
        </mxCell>
        <mxCell id="9egOjNyJsHqfTRNM6eIV-16" value="근무기록" style="shape=ext;margin=3;double=1;whiteSpace=wrap;html=1;align=center;strokeColor=default;strokeWidth=1;verticalAlign=middle;fontFamily=Helvetica;fontSize=12;fontColor=default;fillColor=default;" vertex="1" parent="1">
          <mxGeometry x="350" y="390" width="100" height="40" as="geometry" />
        </mxCell>
        <mxCell id="9egOjNyJsHqfTRNM6eIV-19" style="rounded=0;orthogonalLoop=1;jettySize=auto;html=1;exitX=0.5;exitY=0;exitDx=0;exitDy=0;fontFamily=Helvetica;fontSize=12;fontColor=default;endArrow=none;endFill=0;entryX=0.5;entryY=1;entryDx=0;entryDy=0;" edge="1" parent="1" source="9egOjNyJsHqfTRNM6eIV-17" target="9egOjNyJsHqfTRNM6eIV-10">
          <mxGeometry relative="1" as="geometry" />
        </mxCell>
        <mxCell id="9egOjNyJsHqfTRNM6eIV-17" value="부서번호" style="ellipse;whiteSpace=wrap;html=1;align=center;strokeColor=default;strokeWidth=1;verticalAlign=middle;fontFamily=Helvetica;fontSize=12;fontColor=default;fillColor=default;" vertex="1" parent="1">
          <mxGeometry x="50" y="320" width="70" height="40" as="geometry" />
        </mxCell>
        <mxCell id="9egOjNyJsHqfTRNM6eIV-18" value="부서이름" style="ellipse;whiteSpace=wrap;html=1;align=center;strokeColor=default;strokeWidth=1;verticalAlign=middle;fontFamily=Helvetica;fontSize=12;fontColor=default;fillColor=default;" vertex="1" parent="1">
          <mxGeometry x="130" y="320" width="70" height="40" as="geometry" />
        </mxCell>
        <mxCell id="9egOjNyJsHqfTRNM6eIV-32" style="rounded=0;orthogonalLoop=1;jettySize=auto;html=1;exitX=0.5;exitY=1;exitDx=0;exitDy=0;entryX=0.5;entryY=0;entryDx=0;entryDy=0;fontFamily=Helvetica;fontSize=12;fontColor=default;endArrow=none;endFill=0;" edge="1" parent="1" source="9egOjNyJsHqfTRNM6eIV-29" target="9egOjNyJsHqfTRNM6eIV-12">
          <mxGeometry relative="1" as="geometry" />
        </mxCell>
        <mxCell id="9egOjNyJsHqfTRNM6eIV-29" value="직원번호" style="ellipse;whiteSpace=wrap;html=1;align=center;strokeColor=default;strokeWidth=1;verticalAlign=middle;fontFamily=Helvetica;fontSize=12;fontColor=default;fillColor=default;" vertex="1" parent="1">
          <mxGeometry x="285" y="140" width="70" height="40" as="geometry" />
        </mxCell>
        <mxCell id="9egOjNyJsHqfTRNM6eIV-33" style="rounded=0;orthogonalLoop=1;jettySize=auto;html=1;exitX=0.5;exitY=1;exitDx=0;exitDy=0;fontFamily=Helvetica;fontSize=12;fontColor=default;endArrow=none;endFill=0;" edge="1" parent="1" source="9egOjNyJsHqfTRNM6eIV-30">
          <mxGeometry relative="1" as="geometry">
            <mxPoint x="400" y="230" as="targetPoint" />
          </mxGeometry>
        </mxCell>
        <mxCell id="9egOjNyJsHqfTRNM6eIV-30" value="직원이름" style="ellipse;whiteSpace=wrap;html=1;align=center;strokeColor=default;strokeWidth=1;verticalAlign=middle;fontFamily=Helvetica;fontSize=12;fontColor=default;fillColor=default;" vertex="1" parent="1">
          <mxGeometry x="365" y="140" width="70" height="40" as="geometry" />
        </mxCell>
        <mxCell id="9egOjNyJsHqfTRNM6eIV-34" style="rounded=0;orthogonalLoop=1;jettySize=auto;html=1;exitX=0.5;exitY=1;exitDx=0;exitDy=0;fontFamily=Helvetica;fontSize=12;fontColor=default;endArrow=none;endFill=0;" edge="1" parent="1" source="9egOjNyJsHqfTRNM6eIV-31">
          <mxGeometry relative="1" as="geometry">
            <mxPoint x="400" y="230" as="targetPoint" />
          </mxGeometry>
        </mxCell>
        <mxCell id="9egOjNyJsHqfTRNM6eIV-31" value="직책" style="ellipse;whiteSpace=wrap;html=1;align=center;strokeColor=default;strokeWidth=1;verticalAlign=middle;fontFamily=Helvetica;fontSize=12;fontColor=default;fillColor=default;" vertex="1" parent="1">
          <mxGeometry x="445" y="140" width="70" height="40" as="geometry" />
        </mxCell>
        <mxCell id="9egOjNyJsHqfTRNM6eIV-37" style="rounded=0;orthogonalLoop=1;jettySize=auto;html=1;exitX=0.5;exitY=0;exitDx=0;exitDy=0;entryX=0.5;entryY=1;entryDx=0;entryDy=0;fontFamily=Helvetica;fontSize=12;fontColor=default;endArrow=none;endFill=0;" edge="1" parent="1" source="9egOjNyJsHqfTRNM6eIV-35" target="9egOjNyJsHqfTRNM6eIV-14">
          <mxGeometry relative="1" as="geometry" />
        </mxCell>
        <mxCell id="9egOjNyJsHqfTRNM6eIV-35" value="이름" style="ellipse;whiteSpace=wrap;html=1;align=center;strokeColor=default;strokeWidth=1;verticalAlign=middle;fontFamily=Helvetica;fontSize=12;fontColor=default;fillColor=default;" vertex="1" parent="1">
          <mxGeometry x="610" y="300" width="70" height="40" as="geometry" />
        </mxCell>
        <mxCell id="9egOjNyJsHqfTRNM6eIV-38" style="rounded=0;orthogonalLoop=1;jettySize=auto;html=1;exitX=0.5;exitY=0;exitDx=0;exitDy=0;fontFamily=Helvetica;fontSize=12;fontColor=default;endArrow=none;endFill=0;" edge="1" parent="1" source="9egOjNyJsHqfTRNM6eIV-36">
          <mxGeometry relative="1" as="geometry">
            <mxPoint x="690" y="270" as="targetPoint" />
          </mxGeometry>
        </mxCell>
        <mxCell id="9egOjNyJsHqfTRNM6eIV-36" value="관계" style="ellipse;whiteSpace=wrap;html=1;align=center;strokeColor=default;strokeWidth=1;verticalAlign=middle;fontFamily=Helvetica;fontSize=12;fontColor=default;fillColor=default;" vertex="1" parent="1">
          <mxGeometry x="700" y="300" width="70" height="40" as="geometry" />
        </mxCell>
        <mxCell id="9egOjNyJsHqfTRNM6eIV-41" style="rounded=0;orthogonalLoop=1;jettySize=auto;html=1;exitX=0.5;exitY=0;exitDx=0;exitDy=0;entryX=0.5;entryY=1;entryDx=0;entryDy=0;fontFamily=Helvetica;fontSize=12;fontColor=default;endArrow=none;endFill=0;" edge="1" parent="1" source="9egOjNyJsHqfTRNM6eIV-39" target="9egOjNyJsHqfTRNM6eIV-16">
          <mxGeometry relative="1" as="geometry" />
        </mxCell>
        <mxCell id="9egOjNyJsHqfTRNM6eIV-39" value="기간" style="ellipse;whiteSpace=wrap;html=1;align=center;strokeColor=default;strokeWidth=1;verticalAlign=middle;fontFamily=Helvetica;fontSize=12;fontColor=default;fillColor=default;" vertex="1" parent="1">
          <mxGeometry x="320" y="460" width="70" height="40" as="geometry" />
        </mxCell>
        <mxCell id="9egOjNyJsHqfTRNM6eIV-42" style="rounded=0;orthogonalLoop=1;jettySize=auto;html=1;exitX=0.5;exitY=0;exitDx=0;exitDy=0;fontFamily=Helvetica;fontSize=12;fontColor=default;endArrow=none;endFill=0;" edge="1" parent="1" source="9egOjNyJsHqfTRNM6eIV-40">
          <mxGeometry relative="1" as="geometry">
            <mxPoint x="400" y="430" as="targetPoint" />
          </mxGeometry>
        </mxCell>
        <mxCell id="9egOjNyJsHqfTRNM6eIV-40" value="직책" style="ellipse;whiteSpace=wrap;html=1;align=center;strokeColor=default;strokeWidth=1;verticalAlign=middle;fontFamily=Helvetica;fontSize=12;fontColor=default;fillColor=default;" vertex="1" parent="1">
          <mxGeometry x="410" y="460" width="70" height="40" as="geometry" />
        </mxCell>
      </root>
    </mxGraphModel>
  </diagram>
</mxfile>
